<svg xmlns="http://www.w3.org/2000/svg" viewBox="0 0 64 64">
  <!-- Berry Element Icon for Match Monsters -->
  <defs>
    <radialGradient id="berryGlow" cx="50%" cy="50%" r="65%" fx="50%" fy="50%">
      <stop offset="0%" stop-color="#ffcce6" />
      <stop offset="40%" stop-color="#f48fb1" />
      <stop offset="70%" stop-color="#e91e63" />
      <stop offset="100%" stop-color="#ad1457" />
    </radialGradient>
    <linearGradient id="leafGradient" x1="0%" y1="0%" x2="100%" y2="100%">
      <stop offset="0%" stop-color="#aed581" />
      <stop offset="100%" stop-color="#33691e" />
    </linearGradient>
    <filter id="blur" x="-15%" y="-15%" width="130%" height="130%">
      <feGaussianBlur in="SourceGraphic" stdDeviation="1.5" />
    </filter>
  </defs>
  
  <!-- Glow effect -->
  <circle cx="32" cy="36" r="26" fill="url(#berryGlow)" opacity="0.3" filter="url(#blur)" />
  
  <!-- Stem -->
  <path d="M32,14 C32,14 34,18 32,22" 
        stroke="#7cb342" 
        stroke-width="2" 
        stroke-linecap="round" 
        fill="none" />
  
  <!-- Leaves -->
  <path d="M32,16 C28,14 24,16 26,20" 
        fill="url(#leafGradient)" />
  <path d="M32,16 C36,14 40,16 38,20" 
        fill="url(#leafGradient)" />
  
  <!-- Berry cluster -->
  <circle cx="26" cy="32" r="10" fill="url(#berryGlow)" />
  <circle cx="38" cy="32" r="10" fill="url(#berryGlow)" />
  <circle cx="32" cy="42" r="10" fill="url(#berryGlow)" />
  
  <!-- Berry highlights -->
  <circle cx="24" cy="30" r="3" fill="#ffcce6" opacity="0.7" />
  <circle cx="36" cy="30" r="3" fill="#ffcce6" opacity="0.7" />
  <circle cx="30" cy="40" r="3" fill="#ffcce6" opacity="0.7" />
  
  <!-- Leaf veins -->
  <path d="M32,16 C30,15 28,16 26,18" 
        stroke="#33691e" 
        stroke-width="0.75" 
        stroke-linecap="round" 
        fill="none" 
        opacity="0.7" />
  <path d="M32,16 C34,15 36,16 38,18" 
        stroke="#33691e" 
        stroke-width="0.75" 
        stroke-linecap="round" 
        fill="none" 
        opacity="0.7" />
</svg>