<svg xmlns="http://www.w3.org/2000/svg" viewBox="0 0 64 64">
  <!-- Light Element Icon for Match Monsters -->
  <defs>
    <radialGradient id="lightGlow" cx="50%" cy="50%" r="65%" fx="50%" fy="50%">
      <stop offset="0%" stop-color="#ffffff" />
      <stop offset="30%" stop-color="#fffde7" />
      <stop offset="60%" stop-color="#ffeb3b" />
      <stop offset="100%" stop-color="#ffa000" />
    </radialGradient>
    <filter id="blur" x="-15%" y="-15%" width="130%" height="130%">
      <feGaussianBlur in="SourceGraphic" stdDeviation="1.5" />
    </filter>
  </defs>
  
  <!-- Glow effect -->
  <circle cx="32" cy="32" r="26" fill="url(#lightGlow)" opacity="0.3" filter="url(#blur)" />
  
  <!-- Radiating rays (long) -->
  <g opacity="0.8">
    <rect x="30" y="8" width="4" height="48" rx="2" fill="url(#lightGlow)" transform="rotate(0, 32, 32)" />
    <rect x="30" y="8" width="4" height="48" rx="2" fill="url(#lightGlow)" transform="rotate(45, 32, 32)" />
    <rect x="30" y="8" width="4" height="48" rx="2" fill="url(#lightGlow)" transform="rotate(90, 32, 32)" />
    <rect x="30" y="8" width="4" height="48" rx="2" fill="url(#lightGlow)" transform="rotate(135, 32, 32)" />
  </g>
  
  <!-- Radiating rays (short) -->
  <g opacity="0.6">
    <rect x="30" y="14" width="4" height="36" rx="2" fill="url(#lightGlow)" transform="rotate(22.5, 32, 32)" />
    <rect x="30" y="14" width="4" height="36" rx="2" fill="url(#lightGlow)" transform="rotate(67.5, 32, 32)" />
    <rect x="30" y="14" width="4" height="36" rx="2" fill="url(#lightGlow)" transform="rotate(112.5, 32, 32)" />
    <rect x="30" y="14" width="4" height="36" rx="2" fill="url(#lightGlow)" transform="rotate(157.5, 32, 32)" />
  </g>
  
  <!-- Main sun/star core -->
  <circle cx="32" cy="32" r="16" fill="url(#lightGlow)" />
  
  <!-- Inner highlight -->
  <circle cx="28" cy="28" r="6" fill="#ffffff" opacity="0.6" />
  
  <!-- Star points overlay -->
  <path d="M32,16 L34,28 L46,32 L34,36 L32,48 L30,36 L18,32 L30,28 Z" 
        fill="#ffffff" 
        opacity="0.4" />
</svg>