<svg xmlns="http://www.w3.org/2000/svg" viewBox="0 0 64 64">
  <!-- Psychic Element Icon for Match Monsters -->
  <defs>
    <radialGradient id="psychicGlow" cx="50%" cy="50%" r="65%" fx="50%" fy="50%">
      <stop offset="0%" stop-color="#f3e5ff" />
      <stop offset="30%" stop-color="#e1bee7" />
      <stop offset="60%" stop-color="#9c27b0" />
      <stop offset="100%" stop-color="#6a1b9a" />
    </radialGradient>
    <filter id="blur" x="-15%" y="-15%" width="130%" height="130%">
      <feGaussianBlur in="SourceGraphic" stdDeviation="1.5" />
    </filter>
  </defs>
  
  <!-- Glow effect -->
  <circle cx="32" cy="32" r="26" fill="url(#psychicGlow)" opacity="0.3" filter="url(#blur)" />
  
  <!-- Main psychic energy swirl -->
  <path d="M32,10 
           C45,10 54,20 54,32 
           C54,44 45,54 32,54 
           C19,54 10,44 10,32 
           C10,20 19,10 32,10 Z" 
        fill="none" 
        stroke="url(#psychicGlow)" 
        stroke-width="6" 
        stroke-opacity="0.8" />
  
  <!-- Inner swirls -->
  <path d="M32,18 
           C40,18 46,24 46,32 
           C46,40 40,46 32,46 
           C24,46 18,40 18,32 
           C18,24 24,18 32,18 Z" 
        fill="none" 
        stroke="url(#psychicGlow)" 
        stroke-width="4" 
        stroke-opacity="0.7" />
        
  <!-- Central eye/mind symbol -->
  <circle cx="32" cy="32" r="8" fill="#fff" opacity="0.9" />
  <circle cx="32" cy="32" r="4" fill="#6a1b9a" />
  
  <!-- Small energy particles -->
  <circle cx="20" cy="20" r="2" fill="#f3e5ff" opacity="0.6" />
  <circle cx="44" cy="24" r="2.5" fill="#f3e5ff" opacity="0.7" />
  <circle cx="28" cy="40" r="1.5" fill="#f3e5ff" opacity="0.5" />
</svg>